<?xml version="1.0" standalone="no"?>
<!DOCTYPE svg PUBLIC "-//W3C//DTD SVG 20010904//EN"
 "http://www.w3.org/TR/2001/REC-SVG-20010904/DTD/svg10.dtd">
<svg version="1.0" xmlns="http://www.w3.org/2000/svg"
 width="459.000000pt" height="292.000000pt" viewBox="0 0 459.000000 292.000000"
 preserveAspectRatio="xMidYMid meet">

<g transform="translate(0.000000,292.000000) scale(0.100000,-0.100000)"
fill="#000000" stroke="none">
<path d="M0 1460 l0 -1460 2295 0 2295 0 0 1460 0 1460 -2295 0 -2295 0 0
-1460z m2318 906 c41 -21 68 -54 55 -67 -8 -8 -23 -3 -52 17 -33 21 -46 25
-63 17 -21 -9 -18 -13 45 -54 41 -27 67 -51 67 -62 0 -10 4 -26 9 -35 12 -24
-5 -62 -27 -62 -32 0 -47 26 -33 56 6 14 11 27 11 29 0 2 -35 28 -77 56 -43
28 -82 55 -87 60 -10 8 80 58 107 59 10 0 30 -6 45 -14z m210 -158 c2 -44 -1
-58 -18 -73 -20 -18 -20 -18 -20 37 0 42 -5 59 -20 73 -20 18 -20 17 -20 -61
0 -76 -1 -80 -34 -111 -37 -37 -60 -41 -75 -16 -13 25 4 53 33 53 32 0 36 15
36 126 l0 93 58 -33 57 -34 3 -54z m-373 62 c3 -5 -14 -19 -37 -31 -47 -24
-58 -35 -58 -61 0 -14 13 -10 73 22 52 28 76 36 87 30 8 -5 25 -10 37 -10 28
0 45 -28 32 -52 -13 -24 -38 -23 -65 3 l-22 20 -83 -43 c-46 -23 -88 -44 -92
-46 -4 -2 -7 27 -5 64 3 68 3 68 43 91 42 24 80 29 90 13z m73 -158 c-2 -21
-10 -28 -33 -32 l-30 -5 -8 -99 c-4 -55 -9 -101 -11 -104 -5 -5 -88 48 -103
66 -14 17 -6 113 11 124 23 16 28 7 24 -37 -5 -43 11 -85 33 -85 5 0 9 34 9
76 0 75 1 77 36 110 29 28 39 32 55 23 14 -7 19 -19 17 -37z m322 -76 c0 -57
-3 -67 -25 -84 -39 -31 -81 -45 -101 -34 -18 10 -22 6 61 57 22 13 36 55 19
55 -3 0 -35 -16 -71 -36 -56 -32 -68 -35 -89 -25 -14 6 -33 11 -44 11 -10 0
-22 9 -25 20 -14 43 44 69 65 30 16 -29 36 -25 120 24 41 24 78 45 83 45 4 1
7 -28 7 -63z m-296 12 c8 -13 8 -23 -2 -38 -7 -12 -10 -25 -7 -30 3 -5 42 -31
85 -57 44 -26 80 -51 80 -55 0 -10 -91 -58 -111 -58 -32 0 -99 48 -99 70 0 25
3 25 54 -5 40 -23 76 -25 76 -5 0 5 -29 25 -64 45 -62 37 -64 39 -70 87 -4 27
-4 53 0 59 9 15 45 7 58 -13z m-532 -365 c38 -34 25 -70 -167 -481 -75 -161
-146 -321 -158 -357 -12 -35 -26 -63 -32 -62 -5 1 -9 10 -8 20 6 44 84 230
202 480 132 281 163 364 139 378 -19 12 -113 -43 -215 -126 -136 -112 -167
-176 -100 -212 31 -17 32 -17 7 -21 -59 -9 -79 79 -32 141 49 65 194 182 286
231 58 31 55 30 78 9z m66 -489 c24 -17 29 -43 10 -62 -20 -20 -28 -13 -21 19
5 27 3 31 -13 27 -25 -4 -29 -32 -13 -80 21 -64 29 -65 124 -20 47 23 105 55
129 71 24 17 65 36 91 43 40 11 50 10 75 -4 20 -11 31 -13 39 -5 8 8 14 8 22
0 8 -8 4 -26 -15 -67 -31 -64 -33 -101 -8 -115 26 -14 98 30 188 113 86 78
146 102 194 74 20 -11 31 -13 39 -5 8 8 14 8 23 -1 9 -9 5 -24 -15 -66 -32
-64 -34 -101 -9 -115 26 -14 98 30 195 118 77 71 105 86 147 79 52 -7 51 -69
-1 -76 l-24 -4 23 22 c28 27 16 46 -22 36 -65 -16 -129 -112 -105 -157 34 -65
112 -39 294 100 78 59 100 72 93 51 -6 -17 -221 -172 -266 -191 -83 -36 -135
-17 -149 54 l-8 39 -40 -32 c-49 -39 -108 -70 -133 -70 -35 0 -55 35 -50 85 3
25 4 45 2 45 -1 0 -28 -22 -59 -49 -72 -63 -118 -86 -145 -71 -13 7 -20 21
-20 41 l0 30 -32 -24 c-44 -33 -93 -57 -116 -57 -35 0 -55 35 -50 85 3 25 4
45 2 45 -1 0 -28 -22 -59 -49 -72 -63 -118 -86 -145 -71 -22 12 -27 58 -10 91
6 10 8 19 5 19 -2 0 -43 -19 -89 -42 -52 -26 -88 -50 -95 -64 -5 -13 -22 -31
-36 -40 -25 -16 -27 -16 -43 0 -16 16 -15 19 14 45 42 38 44 48 22 99 -23 56
-23 77 2 102 24 24 29 24 58 4z m1012 -484 c0 -5 -7 -7 -15 -4 -8 4 -23 0 -33
-7 -15 -13 -16 -12 -3 4 14 18 51 24 51 7z m-3 -52 c-3 -8 -6 -5 -6 6 -1 11 2
17 5 13 3 -3 4 -12 1 -19z m-107 -3 c0 -8 -2 -15 -4 -15 -2 0 -6 7 -10 15 -3
8 -1 15 4 15 6 0 10 -7 10 -15z m-793 -37 c-3 -7 -5 -2 -5 12 0 14 2 19 5 13
2 -7 2 -19 0 -25z m353 15 c0 -5 -13 -17 -28 -27 l-27 -19 24 26 c26 28 31 32
31 20z m520 -36 c0 -2 -19 -21 -42 -42 l-43 -40 40 43 c36 39 45 47 45 39z
m-480 -41 c0 -2 -8 -10 -17 -17 -16 -13 -17 -12 -4 4 13 16 21 21 21 13z"/>
<path d="M2334 2169 c-10 -17 13 -36 27 -22 12 12 4 33 -11 33 -5 0 -12 -5
-16 -11z"/>
<path d="M2361 2086 c-12 -14 -5 -26 16 -26 15 0 18 26 4 34 -5 3 -14 0 -20
-8z"/>
<path d="M2247 2203 c-4 -3 -7 -12 -7 -20 0 -15 26 -18 34 -4 7 11 -18 33 -27
24z"/>
<path d="M2184 2129 c-10 -17 13 -36 27 -22 12 12 4 33 -11 33 -5 0 -12 -5
-16 -11z"/>
<path d="M2294 2019 c-10 -17 13 -36 27 -22 12 12 4 33 -11 33 -5 0 -12 -5
-16 -11z"/>
<path d="M2206 2041 c-7 -11 18 -33 27 -24 4 3 7 12 7 20 0 15 -26 18 -34 4z"/>
<path d="M2062 1149 c-63 -31 -116 -115 -91 -145 10 -12 18 -10 49 7 51 29
154 134 146 148 -11 17 -57 13 -104 -10z"/>
<path d="M2482 1149 c-63 -31 -116 -115 -91 -145 10 -12 18 -10 49 7 51 29
154 134 146 148 -11 17 -57 13 -104 -10z"/>
<path d="M1720 975 c-7 -8 -8 -15 -2 -15 5 0 15 7 22 15 7 8 8 15 2 15 -5 0
-15 -7 -22 -15z"/>
</g>
</svg>
